<?xml version="1.0" encoding="UTF-8" standalone="no"?>
<!DOCTYPE svg PUBLIC "-//W3C//DTD SVG 1.1//EN" "http://www.w3.org/Graphics/SVG/1.1/DTD/svg11.dtd">
<svg width="100%" height="100%" viewBox="0 0 287 108" version="1.1" xmlns="http://www.w3.org/2000/svg" xmlns:xlink="http://www.w3.org/1999/xlink" xml:space="preserve" xmlns:serif="http://www.serif.com/" style="fill-rule:evenodd;clip-rule:evenodd;stroke-linecap:round;stroke-linejoin:round;stroke-miterlimit:1.5;">
    <g transform="matrix(1,0,0,1,-413.626,-2119.65)">
        <g transform="matrix(1.03258,0,0,1.93219,0,0)">
            <g id="wonders-of-street-view" transform="matrix(0.968444,0,0,0.603076,289.313,1057.05)">
                <path d="M400,75.792C400,71.013 395.479,67.133 389.91,67.133L125.976,67.133C120.407,67.133 115.886,71.013 115.886,75.792L115.886,148.836C115.886,153.615 120.407,157.495 125.976,157.495L389.91,157.495C395.479,157.495 400,153.615 400,148.836L400,75.792Z" style="fill:white;"/>
                <clipPath id="_clip1">
                    <path d="M400,75.792C400,71.013 395.479,67.133 389.91,67.133L125.976,67.133C120.407,67.133 115.886,71.013 115.886,75.792L115.886,148.836C115.886,153.615 120.407,157.495 125.976,157.495L389.91,157.495C395.479,157.495 400,153.615 400,148.836L400,75.792Z"/>
                </clipPath>
                <g clip-path="url(#_clip1)">
                    <g transform="matrix(0.236462,0,0,0.178464,108.739,56.0978)">
                        <rect x="0" y="0" width="600" height="630" style="fill:rgb(254,255,224);"/>
                    </g>
                    <g transform="matrix(0.248972,0,0,0.178464,250.617,56.0978)">
                        <rect x="0" y="0" width="600" height="630" style="fill:rgb(1,0,38);"/>
                    </g>
                    <g transform="matrix(0.941043,0,0,0.875231,-267.131,-1793.2)">
                        <path d="M528.122,2163.45C528.122,2160.09 525.172,2157.37 521.538,2157.37L457.941,2157.37C454.307,2157.37 451.357,2160.09 451.357,2163.45L451.357,2190.86C451.357,2194.21 454.307,2196.93 457.941,2196.93L521.538,2196.93C525.172,2196.93 528.122,2194.21 528.122,2190.86L528.122,2163.45Z" style="fill:rgb(255,183,0);"/>
                    </g>
                    <g transform="matrix(1.28903,0,0,0.875231,-307.985,-1793.2)">
                        <path d="M528.122,2163.45C528.122,2160.09 525.968,2157.37 523.315,2157.37L456.164,2157.37C453.511,2157.37 451.357,2160.09 451.357,2163.45L451.357,2190.86C451.357,2194.21 453.511,2196.93 456.164,2196.93L523.315,2196.93C525.968,2196.93 528.122,2194.21 528.122,2190.86L528.122,2163.45Z" style="fill:white;"/>
                    </g>
                    <g transform="matrix(1.32203,0,0,1.13454,-443.877,-2359.08)">
                        <path d="M467.037,2179.37C464.856,2178.74 463.269,2177.97 462.276,2177.06C461.283,2176.14 460.787,2175.02 460.787,2173.68C460.787,2172.16 461.393,2170.9 462.607,2169.91C463.821,2168.91 465.399,2168.42 467.342,2168.42C468.666,2168.42 469.847,2168.67 470.884,2169.19C471.921,2169.7 472.725,2170.4 473.294,2171.3C473.863,2172.2 474.148,2173.19 474.148,2174.26L471.592,2174.26C471.592,2173.09 471.222,2172.18 470.48,2171.51C469.738,2170.84 468.692,2170.51 467.342,2170.51C466.088,2170.51 465.11,2170.79 464.408,2171.34C463.706,2171.89 463.356,2172.66 463.356,2173.64C463.356,2174.42 463.689,2175.09 464.355,2175.63C465.022,2176.17 466.156,2176.67 467.759,2177.12C469.361,2177.57 470.615,2178.07 471.52,2178.61C472.424,2179.15 473.095,2179.78 473.532,2180.51C473.969,2181.23 474.188,2182.08 474.188,2183.06C474.188,2184.63 473.579,2185.88 472.36,2186.82C471.142,2187.76 469.513,2188.23 467.474,2188.23C466.15,2188.23 464.914,2187.97 463.766,2187.47C462.618,2186.96 461.733,2186.26 461.111,2185.38C460.489,2184.5 460.177,2183.5 460.177,2182.38L462.733,2182.38C462.733,2183.54 463.164,2184.46 464.024,2185.14C464.885,2185.81 466.035,2186.15 467.474,2186.15C468.816,2186.15 469.844,2185.88 470.559,2185.33C471.275,2184.78 471.632,2184.03 471.632,2183.09C471.632,2182.15 471.301,2181.41 470.639,2180.9C469.977,2180.38 468.776,2179.87 467.037,2179.37Z" style="fill-rule:nonzero;"/>
                        <path d="M485.907,2186.55C484.954,2187.67 483.555,2188.23 481.71,2188.23C480.182,2188.23 479.019,2187.78 478.22,2186.9C477.421,2186.01 477.017,2184.7 477.009,2182.96L477.009,2173.64L479.458,2173.64L479.458,2182.89C479.458,2185.06 480.341,2186.15 482.107,2186.15C483.979,2186.15 485.223,2185.45 485.841,2184.06L485.841,2173.64L488.291,2173.64L488.291,2187.96L485.96,2187.96L485.907,2186.55Z" style="fill-rule:nonzero;"/>
                        <path d="M494.33,2173.64L494.409,2175.44C495.504,2174.06 496.934,2173.37 498.7,2173.37C501.728,2173.37 503.255,2175.08 503.282,2178.49L503.282,2187.96L500.832,2187.96L500.832,2178.48C500.823,2177.45 500.587,2176.69 500.123,2176.19C499.66,2175.7 498.938,2175.45 497.958,2175.45C497.164,2175.45 496.466,2175.66 495.866,2176.09C495.266,2176.51 494.798,2177.07 494.462,2177.75L494.462,2187.96L492.012,2187.96L492.012,2173.64L494.33,2173.64Z" style="fill-rule:nonzero;"/>
                        <path d="M518.418,2184.64L521.967,2173.64L524.47,2173.64L519.331,2187.96L517.464,2187.96L512.273,2173.64L514.776,2173.64L518.418,2184.64Z" style="fill:rgb(1,0,38);fill-rule:nonzero;"/>
                        <path d="M535.169,2184.16C535.169,2183.5 534.92,2182.99 534.421,2182.62C533.922,2182.25 533.053,2181.94 531.813,2181.67C530.572,2181.41 529.588,2181.09 528.859,2180.72C528.131,2180.35 527.593,2179.91 527.244,2179.4C526.895,2178.88 526.721,2178.28 526.721,2177.57C526.721,2176.39 527.217,2175.4 528.211,2174.59C529.204,2173.78 530.473,2173.37 532.018,2173.37C533.642,2173.37 534.96,2173.79 535.971,2174.63C536.981,2175.47 537.487,2176.54 537.487,2177.85L535.024,2177.85C535.024,2177.18 534.739,2176.6 534.17,2176.11C533.6,2175.63 532.883,2175.38 532.018,2175.38C531.126,2175.38 530.429,2175.58 529.925,2175.97C529.422,2176.36 529.171,2176.86 529.171,2177.49C529.171,2178.08 529.405,2178.53 529.872,2178.83C530.34,2179.13 531.186,2179.41 532.408,2179.69C533.631,2179.96 534.622,2180.29 535.381,2180.67C536.141,2181.05 536.703,2181.5 537.07,2182.04C537.436,2182.57 537.619,2183.22 537.619,2183.99C537.619,2185.27 537.107,2186.3 536.083,2187.07C535.059,2187.84 533.73,2188.23 532.097,2188.23C530.95,2188.23 529.934,2188.03 529.051,2187.62C528.169,2187.21 527.478,2186.65 526.979,2185.92C526.48,2185.19 526.231,2184.4 526.231,2183.55L528.681,2183.55C528.725,2184.38 529.054,2185.03 529.667,2185.51C530.281,2185.99 531.091,2186.23 532.097,2186.23C533.024,2186.23 533.768,2186.04 534.329,2185.67C534.889,2185.29 535.169,2184.79 535.169,2184.16Z" style="fill:rgb(254,255,224);fill-rule:nonzero;"/>
                        <path d="M551.193,2168.68L557.496,2184.41L563.8,2168.68L567.097,2168.68L567.097,2187.96L564.555,2187.96L564.555,2180.45L564.793,2172.35L558.463,2187.96L556.516,2187.96L550.2,2172.39L550.451,2180.45L550.451,2187.96L547.909,2187.96L547.909,2168.68L551.193,2168.68Z" style="fill-rule:nonzero;"/>
                        <path d="M570.553,2180.67C570.553,2179.26 570.829,2178 571.381,2176.88C571.933,2175.76 572.701,2174.89 573.685,2174.28C574.67,2173.68 575.793,2173.37 577.055,2173.37C579.006,2173.37 580.585,2174.05 581.79,2175.4C582.995,2176.75 583.597,2178.54 583.597,2180.79L583.597,2180.96C583.597,2182.35 583.33,2183.61 582.796,2184.71C582.262,2185.82 581.498,2186.68 580.505,2187.3C579.512,2187.92 578.371,2188.23 577.082,2188.23C575.14,2188.23 573.566,2187.55 572.361,2186.2C571.156,2184.85 570.553,2183.06 570.553,2180.84L570.553,2180.67ZM573.016,2180.96C573.016,2182.55 573.385,2183.82 574.122,2184.79C574.859,2185.75 575.846,2186.23 577.082,2186.23C578.327,2186.23 579.315,2185.74 580.048,2184.77C580.781,2183.79 581.147,2182.42 581.147,2180.67C581.147,2179.1 580.774,2177.82 580.028,2176.85C579.282,2175.87 578.291,2175.38 577.055,2175.38C575.846,2175.38 574.87,2175.87 574.129,2176.83C573.387,2177.79 573.016,2179.17 573.016,2180.96Z" style="fill-rule:nonzero;"/>
                        <path d="M586.021,2180.67C586.021,2179.26 586.296,2178 586.848,2176.88C587.4,2175.76 588.168,2174.89 589.152,2174.28C590.137,2173.68 591.26,2173.37 592.523,2173.37C594.474,2173.37 596.052,2174.05 597.257,2175.4C598.462,2176.75 599.064,2178.54 599.064,2180.79L599.064,2180.96C599.064,2182.35 598.797,2183.61 598.263,2184.71C597.729,2185.82 596.965,2186.68 595.972,2187.3C594.979,2187.92 593.838,2188.23 592.549,2188.23C590.607,2188.23 589.033,2187.55 587.828,2186.2C586.623,2184.85 586.021,2183.06 586.021,2180.84L586.021,2180.67ZM588.484,2180.96C588.484,2182.55 588.852,2183.82 589.589,2184.79C590.327,2185.75 591.313,2186.23 592.549,2186.23C593.794,2186.23 594.783,2185.74 595.515,2184.77C596.248,2183.79 596.615,2182.42 596.615,2180.67C596.615,2179.1 596.242,2177.82 595.496,2176.85C594.75,2175.87 593.759,2175.38 592.523,2175.38C591.313,2175.38 590.338,2175.87 589.596,2176.83C588.854,2177.79 588.484,2179.17 588.484,2180.96Z" style="fill-rule:nonzero;"/>
                        <path d="M604.454,2173.64L604.534,2175.44C605.628,2174.06 607.058,2173.37 608.824,2173.37C611.852,2173.37 613.379,2175.08 613.406,2178.49L613.406,2187.96L610.956,2187.96L610.956,2178.48C610.947,2177.45 610.711,2176.69 610.248,2176.19C609.784,2175.7 609.062,2175.45 608.083,2175.45C607.288,2175.45 606.591,2175.66 605.99,2176.09C605.39,2176.51 604.922,2177.07 604.586,2177.75L604.586,2187.96L602.137,2187.96L602.137,2173.64L604.454,2173.64Z" style="fill-rule:nonzero;"/>
                    </g>
                </g>
                <path d="M400,75.792C400,71.013 395.479,67.133 389.91,67.133L125.976,67.133C120.407,67.133 115.886,71.013 115.886,75.792L115.886,148.836C115.886,153.615 120.407,157.495 125.976,157.495L389.91,157.495C395.479,157.495 400,153.615 400,148.836L400,75.792Z" style="fill:none;stroke:rgb(1,0,38);stroke-width:1.84px;"/>
            </g>
        </g>
    </g>
</svg>
